<svg id="Ebene_1" data-name="Ebene 1" xmlns="http://www.w3.org/2000/svg" viewBox="0 0 1429.42 1430.45">
  <defs>
    <style>
      .cls-1 {
        fill: #fff;
      }
    </style>
  </defs>
  <title>bridgerunners-duesseldorf-lauftreff</title>
  <style>
  #circle{
    animation: circle 12s linear infinite;
    transform-origin: center;
    }

    @keyframes circle{
      to {
      transform:rotate(360deg);
      }
    }
  </style>
  <g id="circle">
    <g>
      <path class="cls-1" d="M354.71,195.72A57,57,0,0,1,373,186.91a40.69,40.69,0,0,1,17-.94,37.31,37.31,0,0,1,14.71,5.8,42.56,42.56,0,0,1,11.46,11.29,41.5,41.5,0,0,1,7.5,19.92,38.1,38.1,0,0,1-4.14,21.09q-5.2,10.44-17.74,19.17L367.62,287l-47.06-67.52Zm39.58,57.83q9.65-6.74,13.41-14.08a25,25,0,0,0,2.85-14.73,30.85,30.85,0,0,0-5.5-14A30.31,30.31,0,0,0,394,201a25.74,25.74,0,0,0-14.88-2.54q-8.26.9-17.91,7.62L338,222.29l33.08,47.46Z"/>
      <path class="cls-1" d="M512.17,114.74l16.45,39.76a41.45,41.45,0,0,1,3.18,21.08,36.68,36.68,0,0,1-7.87,18.65q-6.61,8.34-18.24,13.14a44.31,44.31,0,0,1-22.13,3.56,36.7,36.7,0,0,1-18.8-7.62,41.41,41.41,0,0,1-12.64-17.17l-16.44-39.77,11.73-4.85,16.27,39.33a27.28,27.28,0,0,0,22.48,17.29A29.19,29.19,0,0,0,501,196a30.78,30.78,0,0,0,12.56-9.14,26.82,26.82,0,0,0,5.8-13.21,28.11,28.11,0,0,0-2.09-14.91L501,119.37Zm-52.31,13.49q-3.81,1.58-6.46.38a7.71,7.71,0,0,1-4-4.34,8,8,0,0,1-.18-5.66c.64-2,2.22-3.46,4.75-4.5s4.69-1.18,6.46-.39a7.76,7.76,0,0,1,4,4.35,8,8,0,0,1,.18,5.65Q463.65,126.66,459.86,128.23ZM482.24,119q-3.81,1.57-6.46.38a7.71,7.71,0,0,1-4-4.34,7.9,7.9,0,0,1-.17-5.65q.94-2.94,4.75-4.51t6.46-.38a7.66,7.66,0,0,1,3.95,4.34,8,8,0,0,1,.18,5.65C486.36,116.42,484.77,117.92,482.24,119Z"/>
      <path class="cls-1" d="M575.47,155.89A56.16,56.16,0,0,0,592.09,164a40.1,40.1,0,0,0,18.94.38,46.17,46.17,0,0,0,11.26-3.68,23.84,23.84,0,0,0,8.26-6.16,9.4,9.4,0,0,0,2.13-8.14,6.73,6.73,0,0,0-4.33-5.33,26.68,26.68,0,0,0-9.72-1.34q-6.17.06-14.9.68a88.18,88.18,0,0,1-18.81-.65,28.59,28.59,0,0,1-13.24-5.22,17.66,17.66,0,0,1-6.46-11.08,18.94,18.94,0,0,1,2.27-13.85A31.07,31.07,0,0,1,578.84,99a56.09,56.09,0,0,1,17.63-6.37q12.35-2.4,22-.44a33.84,33.84,0,0,1,16.18,7.75l-6.54,10.73a34.36,34.36,0,0,0-13.07-6.56,37,37,0,0,0-16.75-.21,43.8,43.8,0,0,0-10.94,3.5,19.72,19.72,0,0,0-7.1,5.39,8,8,0,0,0-1.69,6.68,8.38,8.38,0,0,0,4.37,6.16,22.54,22.54,0,0,0,9.41,2.18,112.81,112.81,0,0,0,13.43-.22q7.08-.53,13.78-.58a54,54,0,0,1,12.27,1.21,20.31,20.31,0,0,1,9.27,4.54,16.31,16.31,0,0,1,4.89,9.42,21.78,21.78,0,0,1-2,14.64,30.38,30.38,0,0,1-11.44,11.69,57.6,57.6,0,0,1-19.45,7.13,66.46,66.46,0,0,1-23.34.71,46.4,46.4,0,0,1-20.11-8.55Z"/>
      <path class="cls-1" d="M685.21,139.21a56.31,56.31,0,0,0,14.73,11.2,40.23,40.23,0,0,0,18.51,4A47,47,0,0,0,730.22,153a23.88,23.88,0,0,0,9.29-4.45,9.37,9.37,0,0,0,3.66-7.58,6.73,6.73,0,0,0-3.22-6.06,26.65,26.65,0,0,0-9.28-3.19q-6.06-1.12-14.75-2.21a88,88,0,0,1-18.34-4.27q-7.74-2.83-12-7.66a17.67,17.67,0,0,1-4.21-12.12,18.9,18.9,0,0,1,4.91-13.16A31,31,0,0,1,699.49,84,56.53,56.53,0,0,1,718,81.19q12.57,0,21.68,3.81a33.93,33.93,0,0,1,14.38,10.73L745.6,105A34.36,34.36,0,0,0,734,96a37,37,0,0,0-16.39-3.44,43.92,43.92,0,0,0-11.41,1.33,19.52,19.52,0,0,0-8,3.92,8,8,0,0,0-3,6.22,8.37,8.37,0,0,0,3.1,6.89,22.37,22.37,0,0,0,8.81,4,113.27,113.27,0,0,0,13.22,2.38q7.05.84,13.64,2.09a54.24,54.24,0,0,1,11.81,3.55,20.36,20.36,0,0,1,8.21,6.25,16.27,16.27,0,0,1,3,10.17,21.85,21.85,0,0,1-4.79,14,30.44,30.44,0,0,1-13.48,9.26,58,58,0,0,1-20.47,3.25,66.48,66.48,0,0,1-23-3.81,46.42,46.42,0,0,1-18.09-12.26Z"/>
      <path class="cls-1" d="M805.46,87.9l67,13.19-2.36,12-54.57-10.74-4.2,21.34,48.23,9.49-2.37,12L809,135.69l-4.61,23.42L859,169.85l-2.36,12-67-13.2Z"/>
      <path class="cls-1" d="M959,206.46l-4.55,11.35L891.55,192.6l30.63-76.39L934,120.94l-26.08,65Z"/>
      <path class="cls-1" d="M1064.79,187.3a57.05,57.05,0,0,1,15,13.71,40.7,40.7,0,0,1,7.17,15.42,37.46,37.46,0,0,1,.08,15.81,42.94,42.94,0,0,1-6.23,14.83,41.59,41.59,0,0,1-15.71,14.36,38.15,38.15,0,0,1-21.13,4q-11.61-.95-24.38-9.35l-34.78-22.88L1030,164.42Zm-39,58.22q9.81,6.45,18,7.22a25,25,0,0,0,14.74-2.83,30.79,30.79,0,0,0,10.91-10.27,30.44,30.44,0,0,0,5-13.89,25.66,25.66,0,0,0-3.18-14.75q-3.88-7.35-13.71-13.81l-23.68-15.57-31.79,48.32Z"/>
      <path class="cls-1" d="M1177,341a38.26,38.26,0,0,1-14.51,8.9,40.37,40.37,0,0,1-16.88,1.88,49.28,49.28,0,0,1-17.4-5.12,63.55,63.55,0,0,1-27.76-28.85A48.4,48.4,0,0,1,1096,300.2a40.61,40.61,0,0,1,2.57-16.75,39.79,39.79,0,0,1,24-23.07,41,41,0,0,1,16.83-1.92,48.67,48.67,0,0,1,17.41,5.12A59.58,59.58,0,0,1,1173,275.79a58.92,58.92,0,0,1,11.53,16.64A49.43,49.43,0,0,1,1189,310a40.48,40.48,0,0,1-2.52,16.79A38.42,38.42,0,0,1,1177,341Zm-9-9.32a26.24,26.24,0,0,0,7.79-14,32.32,32.32,0,0,0-1.29-16.78,43.94,43.94,0,0,0-10.41-16.5,44.45,44.45,0,0,0-16.17-11.13,31.91,31.91,0,0,0-16.68-1.9,27.67,27.67,0,0,0-22.11,21.28,31.87,31.87,0,0,0,1.26,16.74A48.55,48.55,0,0,0,1137,337a32,32,0,0,0,16.76,1.9A26.32,26.32,0,0,0,1168,331.66Z"/>
      <path class="cls-1" d="M1253.64,430.14a23.69,23.69,0,0,1-10.6,3.5,28,28,0,0,1-11-1.35,30.06,30.06,0,0,1-9.91-5.54L1207.34,464l-8.16-13.62,14.06-35.26L1198.57,391l-25.92,15.77-6.6-10.85,70.31-42.79,25,41.08a27.05,27.05,0,0,1,4.08,13.14,26.69,26.69,0,0,1-2.69,13A23.37,23.37,0,0,1,1253.64,430.14Zm-4.56-32.59-16.56-27.22L1209,384.63l16.57,27.22a17.47,17.47,0,0,0,6.05,6.09,16.93,16.93,0,0,0,7.66,2.43,12.3,12.3,0,0,0,7.32-1.78,10.4,10.4,0,0,0,4.44-5.38,16.39,16.39,0,0,0,.86-7.62A19.39,19.39,0,0,0,1249.08,397.55Z"/>
      <path class="cls-1" d="M1222.15,496l77.58-27.48,22.54,63.61-11.53,4.09-18.29-51.65-22.61,8,16.53,46.66-11.53,4.08-16.53-46.66L1226.39,508Z"/>
      <path class="cls-1" d="M1348.16,687.2q.87,15.49-4,23.66t-14.93,8.73a16.43,16.43,0,0,1-10.11-2.66,20.2,20.2,0,0,1-7.29-9.18,32.6,32.6,0,0,1-3.51,8.67,20.26,20.26,0,0,1-6.34,6.66,19.54,19.54,0,0,1-9.84,3,22.41,22.41,0,0,1-12-2.21,21,21,0,0,1-7.83-7.21,34.43,34.43,0,0,1-4.41-10.29,59.89,59.89,0,0,1-1.76-11.44L1263.44,647l82.17-4.66Zm-45.5,5.52-2-35.1-24.3,1.38,2,35.69c.32,5.55,1.57,10.08,3.77,13.56a9.86,9.86,0,0,0,9.52,4.88,9.05,9.05,0,0,0,7.11-3.46,18.56,18.56,0,0,0,3.27-7.79A38.18,38.18,0,0,0,1302.66,692.72Zm33.34-3.89-1.88-33.1L1313,656.92l2,34.52a26.9,26.9,0,0,0,1.8,7.79,13.49,13.49,0,0,0,4,5.6,8.38,8.38,0,0,0,5.94,1.84,8.19,8.19,0,0,0,7.7-5.44A28.94,28.94,0,0,0,1336,688.83Z"/>
      <path class="cls-1" d="M1255.33,829.55l20.47-6.43,7.26-48.25-17.67-12.18,2-13.25,75.41,52-2.2,14.65-87.34,27.29Zm61.56-31.4-22.63-15.54-5.48,36.4,26.71-8.35q3.62-1.12,6.92-2.17t7.14-2q-3.49-2.07-6.51-4.13Z"/>
      <path class="cls-1" d="M1268.22,880.85a55.94,55.94,0,0,0-15.53,10.07q-6.43,6-10.07,16.05a46.32,46.32,0,0,0-2.62,11.55,23.93,23.93,0,0,0,1,10.26,9.45,9.45,0,0,0,5.89,6,6.73,6.73,0,0,0,6.8-1,26.74,26.74,0,0,0,6.15-7.65q3.11-5.31,7.07-13.13a88.11,88.11,0,0,1,10.22-15.81q5.31-6.33,11.28-8.67a17.63,17.63,0,0,1,12.82.15,18.91,18.91,0,0,1,10.72,9.07,31,31,0,0,1,3.31,15.21,56.29,56.29,0,0,1-3.6,18.39q-4.29,11.82-10.93,19.11a33.83,33.83,0,0,1-15,9.9L1280,949.26a34.49,34.49,0,0,0,12.35-7.85,37.12,37.12,0,0,0,8.79-14.26A44.27,44.27,0,0,0,1303.7,916a19.51,19.51,0,0,0-1-8.86,8,8,0,0,0-4.86-4.89,8.36,8.36,0,0,0-7.52.59,22.4,22.4,0,0,0-6.71,7,115,115,0,0,0-6.72,11.63q-3.18,6.36-6.58,12.13a54,54,0,0,1-7.34,9.9,20.34,20.34,0,0,1-8.66,5.62,16.41,16.41,0,0,1-10.59-.64,21.87,21.87,0,0,1-11.53-9.25q-4-6.51-4.15-15.82a57.94,57.94,0,0,1,3.88-20.36,66.34,66.34,0,0,1,11.38-20.38A46.39,46.39,0,0,1,1261,869.73Z"/>
      <path class="cls-1" d="M1275.9,1011.24l-35,58.67-10.5-6.27,28.5-47.76-18.68-11.14-25.18,42.2-10.51-6.26,25.19-42.21-20.5-12.23-28.5,47.76-10.5-6.27,35-58.66Z"/>
      <path class="cls-1" d="M1181.51,1143.5a56.72,56.72,0,0,1-15.93,12.59,40.69,40.69,0,0,1-16.36,4.63,37.61,37.61,0,0,1-15.62-2.44,42.85,42.85,0,0,1-13.65-8.52,41.65,41.65,0,0,1-11.67-17.8,38.07,38.07,0,0,1-.56-21.49q2.79-11.31,13.12-22.58L1149,1057.2l60.67,55.62Zm-51.26-47.78q-7.93,8.65-10,16.66a24.94,24.94,0,0,0,.45,15,30.74,30.74,0,0,0,8.4,12.41,30.34,30.34,0,0,0,12.92,7.14,25.74,25.74,0,0,0,15.07-.78q7.88-2.69,15.82-11.34l19.14-20.89-42.64-39.09Z"/>
      <path class="cls-1" d="M983.12,1261.69A23.76,23.76,0,0,1,980,1251a27.9,27.9,0,0,1,1.72-11,30.12,30.12,0,0,1,5.85-9.72l-36.7-16,13.88-7.7,34.77,15.21,24.58-13.87-14.91-26.42,11.06-6.24,40.45,71.68-41.88,23.63a27,27,0,0,1-13.27,3.64,26.62,26.62,0,0,1-12.9-3.11A23.4,23.4,0,0,1,983.12,1261.69Zm32.73-3.49,27.75-15.66-13.52-24-27.75,15.66a17.46,17.46,0,0,0-6.29,5.84,16.88,16.88,0,0,0-2.67,7.59,12.23,12.23,0,0,0,1.52,7.37,10.46,10.46,0,0,0,5.24,4.61,16.31,16.31,0,0,0,7.58,1.12A19.5,19.5,0,0,0,1015.85,1258.2Z"/>
      <path class="cls-1" d="M866.08,1331.07l-12.92-41a41.36,41.36,0,0,1-1.33-21.28,36.66,36.66,0,0,1,9.47-17.89q7.31-7.74,19.3-11.51t22.36-1.61A36.59,36.59,0,0,1,921,1247a41.36,41.36,0,0,1,11.09,18.2l12.92,41L932.93,1310l-12.78-40.6a27.26,27.26,0,0,0-20.9-19.18,29.17,29.17,0,0,0-14.94.88,30.88,30.88,0,0,0-13.32,8,26.91,26.91,0,0,0-6.92,12.66,28.06,28.06,0,0,0,.79,15l12.78,40.6Z"/>
      <path class="cls-1" d="M735.55,1348.22l-12.65,1-6.7-82,12.77-1,70.77,59.1q-1.32-7.56-2.7-15a150.34,150.34,0,0,1-2-15.12l-2.79-34.1,12.66-1,6.7,82-12.54,1-70.91-60.74q1.29,5.67,2.26,12.44t1.7,13.6q.74,6.84,1.23,12.94Z"/>
      <path class="cls-1" d="M590,1335.76l-12.55-1.91,12.37-81.37,12.68,1.93,55.25,73.82q.45-7.67.84-15.27a148.43,148.43,0,0,1,1.53-15.17l5.15-33.83,12.55,1.91-12.38,81.37L653,1345.35l-55-75.45q-.06,5.82-.67,12.63t-1.48,13.63Q594.93,1303,594,1309Z"/>
      <path class="cls-1" d="M499.34,1221.56l52.28,19.32-4.37,11.8-20.18-7.46-19.81,53.6,20.18,7.46-4.36,11.8-52.28-19.33,4.36-11.8,20.19,7.47,19.81-53.6L495,1233.36Z"/>
      <path class="cls-1" d="M354.53,1235.11l-10.78-6.71,43.48-69.88,10.88,6.77,21.65,89.63q3.44-6.87,6.79-13.71t7.4-13.33L452,1198.83l10.78,6.71-43.48,69.88-10.68-6.64-20.77-91q-2.34,5.32-5.6,11.33T375.53,1201q-3.48,5.94-6.71,11.13Z"/>
      <path class="cls-1" d="M267.1,1161.81a64.56,64.56,0,0,1-10.29-13.07,59.64,59.64,0,0,1-5.84-13.13,34.15,34.15,0,0,1-1.64-11.26l12.39-.77a58.45,58.45,0,0,0,4.43,15.54A47.62,47.62,0,0,0,292,1163.69a33.94,33.94,0,0,0,16.92,2,24.74,24.74,0,0,0,14.17-7.22,28.46,28.46,0,0,0,7.42-11.69,26.26,26.26,0,0,0,.77-12.35,36.81,36.81,0,0,0-4.47-12.09,51.92,51.92,0,0,0-8.37-10.84,58.79,58.79,0,0,0-13.49-10.28,32.52,32.52,0,0,0-12.93-4.18,13.45,13.45,0,0,0-10,2.88l23.65,23.58-8.71,8.74-33.31-33.2c.5-.72,1.05-1.44,1.66-2.17s1.21-1.38,1.82-2a34.59,34.59,0,0,1,9.93-7,32.34,32.34,0,0,1,10.26-3.06q9.32-1,19.83,3.75t20.77,15a62.82,62.82,0,0,1,11.25,15,48.34,48.34,0,0,1,5.43,16.7,37.63,37.63,0,0,1-1.72,17,40.86,40.86,0,0,1-10.2,15.82,35.8,35.8,0,0,1-14.41,9,41.79,41.79,0,0,1-17,1.77,51.62,51.62,0,0,1-17.71-5.12A60.79,60.79,0,0,1,267.1,1161.81Z"/>
      <path class="cls-1" d="M196.28,934.09a65.2,65.2,0,0,1,19.95,14.36,54.1,54.1,0,0,1,9,12.83,56.46,56.46,0,0,1,5.81,18,46.39,46.39,0,0,1-.71,17.33,39,39,0,0,1-7.28,15.08,40.75,40.75,0,0,1-13.89,11.2,37.38,37.38,0,0,1-16.57,4.25,41.26,41.26,0,0,1-16.57-3.22,49.11,49.11,0,0,1-14.73-9.57,52.58,52.58,0,0,1-11-14.7,57.69,57.69,0,0,1-5.18-14.52A63.62,63.62,0,0,1,143.69,971a42.37,42.37,0,0,1,1.55-11.43l12.95,1.83A61.37,61.37,0,0,0,157,977.83,43.12,43.12,0,0,0,161.91,995a37.34,37.34,0,0,0,7.4,9.95,35.16,35.16,0,0,0,10.13,6.9,28.71,28.71,0,0,0,11.67,2.55,26,26,0,0,0,12.18-3,27.62,27.62,0,0,0,10.23-8.53,28.28,28.28,0,0,0,4.76-11.35,34.64,34.64,0,0,0-.12-12.75,46.41,46.41,0,0,0-4.34-12.64,40.46,40.46,0,0,0-7.35-10.37,45.93,45.93,0,0,0-8.53-6.73q-4.4-2.64-8.3-4.61Z"/>
      <path class="cls-1" d="M120.74,840.74a23.65,23.65,0,0,1,11.16-.46,27.91,27.91,0,0,1,10.22,4.31,30.14,30.14,0,0,1,8,8l24.41-31.75,4.11,15.33-23.17,30.07,7.52,27.2,29.24-8.08,3.38,12.24-79.33,21.92L103.48,873.2a27.14,27.14,0,0,1-.32-13.76,26.58,26.58,0,0,1,6.14-11.76A23.41,23.41,0,0,1,120.74,840.74Zm-4.53,32.6,8.48,30.71,26.52-7.32L142.73,866a17.61,17.61,0,0,0-4.15-7.51,16.9,16.9,0,0,0-6.72-4.43,12.26,12.26,0,0,0-7.52-.3,10.52,10.52,0,0,0-5.74,4,16.39,16.39,0,0,0-2.92,7.09A19.43,19.43,0,0,0,116.21,873.34Z"/>
      <path class="cls-1" d="M87.17,791.55l-4.75-68.14,12.2-.85L98.49,778l21.7-1.51-3.42-49,12.2-.85,3.41,49L156.19,774l-3.86-55.48,12.2-.85,4.75,68.15Z"/>
      <path class="cls-1" d="M101.39,552.36l75.93,46.42-1.39,8.71-55.48,14.12,48.28,30.93-1.54,9.64-86.06,17,2.21-13.81,50.47-9.57q3.54-.62,7.46-1.25c2.61-.41,5.16-.78,7.67-1.09q-3.37-2-6.84-4.13c-2.31-1.44-4.5-2.84-6.59-4.21l-31.28-20.35,1.93-12.08,35.76-9.17,7.44-1.85q4-1,7.67-1.81-3.53-1.76-7.16-3.64c-2.42-1.26-4.67-2.54-6.77-3.82L99.23,565.83Z"/>
    </g>
    <path class="cls-1" d="M162.3,511.86,152,509.17c17.76-67.93,56.35-121,85.59-153.65,31.68-35.31,58.8-54.33,59.94-55.13l6.08,8.73c-.27.19-27.43,19.27-58.3,53.73C216.94,394.54,179.49,446.11,162.3,511.86Z"/>
    <polygon class="cls-1" points="291.47 352.07 281.57 348.19 299.05 303.65 247.48 318.45 244.55 308.23 316.82 287.48 291.47 352.07"/>
  </g>
  <g id="logo">
    <path class="cls-1" d="M391,554.27a41.45,41.45,0,0,1,17.16,3.88q8.58,3.87,18.05,13.39T435.71,601V616.2q0,22.63-17.75,32.16,17.75,10.36,17.75,32.84v23.08q0,20.72-13.31,34.32t-34.32,13.61h-43.5V554.27ZM407.6,613.2V600.94q0-9.27-5.23-14.65t-14-5.39H372.69v55h16.58q9.6,0,14-6.13T407.6,613.2Zm0,91.08V681.2q0-9.47-5.09-14.94t-14.11-5.47H372.69v63.32h16a17.86,17.86,0,0,0,13.68-5.63A20,20,0,0,0,407.6,704.28Z"/>
    <path class="cls-1" d="M487.19,752.21V554.27h49.42q19.51,0,32.84,13.65t13.31,33.23v18.4q0,27.29-23,41.83l29.84,90.83H559.8L533.06,667.3H515.3v84.91Zm62.73-116a18.77,18.77,0,0,0,3.7-7.43,38.27,38.27,0,0,0,1-9.22V601.12q0-9.21-5-14.87t-14.2-5.65H515.3v61.84h19.83A19.55,19.55,0,0,0,549.92,636.2Z"/>
    <path class="cls-1" d="M633.06,752.21V554.27h28.11V752.21Z"/>
    <path class="cls-1" d="M760.28,554.27A45.07,45.07,0,0,1,793,567.78a43.89,43.89,0,0,1,13.76,32.49v103q0,21.36-13.17,35.16t-34.18,13.8H715.61V554.27Zm18.35,149V600.21a18,18,0,0,0-6-13.81,20.51,20.51,0,0,0-14.4-5.5H743.71v145h13.68Q778.62,725.88,778.63,703.3Z"/>
    <path class="cls-1" d="M944.91,731.27a46,46,0,0,1-17.16,16.52,47.39,47.39,0,0,1-23.38,5.9,46.6,46.6,0,0,1-21.59-5.32,45.17,45.17,0,0,1-16.13-13.17A44.31,44.31,0,0,1,859,719.52a75,75,0,0,1-1.93-17.9V602.8a61.93,61.93,0,0,1,1.63-14.65q1.62-6.66,10.8-21t35.8-14.35a46.36,46.36,0,0,1,22.19,5.54q10.37,5.53,15.68,13.55a46.75,46.75,0,0,1,7,15A67.15,67.15,0,0,1,951.72,602v8.16H923.61v-8a51.13,51.13,0,0,0-.44-7.61q-.43-2.73-4.37-8.18T905,580.9q-11.37,0-15,6.08t-4.22,9a35.5,35.5,0,0,0-.59,6.82v99a59.84,59.84,0,0,0,.44,8.44q.43,2.82,4.37,9.05t14.72,6.22q11.64,0,14.71-6.21A42.12,42.12,0,0,0,923,710.2a45.07,45.07,0,0,0,.59-8.29V667.3H901.12V642.74h50.6v59q0,12.39-1.48,17.85A44.8,44.8,0,0,1,944.91,731.27Z"/>
    <path class="cls-1" d="M1087.82,724.11v28.1h-84.33V554.27h84.33v26H1031.6v58.58H1081v26.63H1031.6v58.59Z"/>
    <path class="cls-1" d="M412.86,953.42V831h30.57a27.28,27.28,0,0,1,20.31,8.44A28.35,28.35,0,0,1,472,860v11.38q0,16.88-14.25,25.87l18.46,56.19H457.77l-16.54-52.53h-11v52.53Zm38.8-71.76a11.65,11.65,0,0,0,2.29-4.6,23.39,23.39,0,0,0,.64-5.7V860a13.35,13.35,0,0,0-3.11-9.2q-3.12-3.48-8.78-3.49H430.25v38.25h12.26A12.1,12.1,0,0,0,451.66,881.66Z"/>
    <path class="cls-1" d="M555.8,940.41a30.06,30.06,0,0,1-10.25,10.08,26.58,26.58,0,0,1-13.91,3.85,28.72,28.72,0,0,1-14.55-4q-6.87-3.93-9.61-9a34.6,34.6,0,0,1-3.57-8.79,38.12,38.12,0,0,1-.82-8.16V831h17.39v93.5a20,20,0,0,0,.36,4.13,15,15,0,0,0,2.84,5c1.64,2.2,4.36,3.3,8.14,3.3q5.31,0,8-3.85a14.85,14.85,0,0,0,2.66-8.62V831h17.38v93.48a36.82,36.82,0,0,1-.91,8.34A26.51,26.51,0,0,1,555.8,940.41Z"/>
    <path class="cls-1" d="M638,953.42,610.7,878.88v74.54H593.32V831h16.47l27.08,74.24V831h17.39V953.42Z"/>
    <path class="cls-1" d="M732.59,953.42l-27.27-74.54v74.54H687.93V831H704.4l27.09,74.24V831h17.39V953.42Z"/>
    <path class="cls-1" d="M834.71,936v17.39H782.55V831h52.16v16.11H799.94v36.23H830.5V899.8H799.94V936Z"/>
    <path class="cls-1" d="M872.59,953.42V831h30.57a27.28,27.28,0,0,1,20.31,8.44A28.35,28.35,0,0,1,931.71,860v11.38q0,16.88-14.25,25.87l18.46,56.19H917.5L901,900.89H890v52.53Zm38.8-71.76a11.65,11.65,0,0,0,2.29-4.6,23.39,23.39,0,0,0,.64-5.7V860a13.35,13.35,0,0,0-3.11-9.2q-3.12-3.48-8.78-3.49H890v38.25h12.26A12.1,12.1,0,0,0,911.39,881.66Z"/>
    <path class="cls-1" d="M975.45,922.86a37,37,0,0,0,.27,5.21c.18,1.16,1.11,2.93,2.77,5.31s4.7,3.57,9.12,3.57a15.13,15.13,0,0,0,6.83-1.56,10.8,10.8,0,0,0,4.61-4,10.64,10.64,0,0,0,1.56-5.13q.09-2.65.09-3.57v-8.6a40.92,40.92,0,0,0-.27-5.49,7.82,7.82,0,0,0-2.2-3.93,18,18,0,0,0-5.49-3.85q-3.57-1.74-12.44-5a35.66,35.66,0,0,1-14.92-10.34q-6-7-6-19.31v-5.49a30.7,30.7,0,0,1,8.33-21.5,27,27,0,0,1,20.77-9.06,28.12,28.12,0,0,1,21.14,8.87,30.19,30.19,0,0,1,8.51,21.69v5.49H1000.7v-5.49a23.07,23.07,0,0,0-.36-4.39,15.87,15.87,0,0,0-2.93-5.31q-2.56-3.48-8.6-3.48a11.23,11.23,0,0,0-8.7,3.75,13.55,13.55,0,0,0-3.38,9.43v5.49a32.8,32.8,0,0,0,.27,5,8.41,8.41,0,0,0,1.92,3.57,13.4,13.4,0,0,0,4.76,3.48q3.12,1.47,12,4.67a39.67,39.67,0,0,1,15.65,10.43q6.76,7.23,6.77,19.67v9.89a42.55,42.55,0,0,1-1.19,10.61q-1.18,4.57-7.41,12.72t-21.41,8.15q-15.75,0-22.88-10.35t-7.14-21.13v-4.4h17.39Z"/>
    <rect class="cls-1" x="362.81" y="475.67" width="681.7" height="6.16"/>
    <rect class="cls-1" x="711.65" y="371.8" width="6.16" height="106.95"/>
    <rect class="cls-1" x="820.21" y="314.48" width="6.16" height="235.83" transform="translate(102.09 1019.46) rotate(-66.85)"/>
    <rect class="cls-1" x="793.33" y="355.11" width="6.16" height="177.38" transform="translate(75.2 1001.55) rotate(-66.85)"/>
    <rect class="cls-1" x="766.56" y="395.81" width="6.16" height="118.95" transform="translate(48.41 983.93) rotate(-66.85)"/>
    <rect class="cls-1" x="739.62" y="436.6" width="6.16" height="60.54" transform="translate(21.57 966.4) rotate(-66.86)"/>
    <rect class="cls-1" x="488.35" y="429.32" width="235.84" height="6.16" transform="translate(-121.14 272.99) rotate(-23.14)"/>
    <rect class="cls-1" x="544.39" y="440.82" width="177.38" height="6.16" transform="translate(-123.5 284.45) rotate(-23.14)"/>
    <rect class="cls-1" x="600.54" y="452.22" width="118.94" height="6.16" transform="translate(-125.81 295.95) rotate(-23.14)"/>
    <rect class="cls-1" x="656.6" y="463.68" width="60.54" height="6.16" transform="translate(-128.16 307.42) rotate(-23.14)"/>
  </g>
</svg>
