<svg id="bridgerunners-duesseldorf-lauftreff" data-name="bridgerunners-duesseldorf-lauftreff" xmlns="http://www.w3.org/2000/svg" viewBox="0 0 1429.42 1430.45">
  <defs>
    <style>
      .bridgerunners-duesseldorf {
        fill: #fff;
      }

      .bridgerunners-duesseldorf:hover {
        fill: #ff3c00;
      }

      #hit-box{
      opacity: 0;
      }
    </style>
  </defs>
  <title>bridgerunners-duesseldorf-lauftreff</title>
  <style>
  #circle{
    animation: circle 12s linear infinite;
    transform-origin: center;
    }

    @keyframes circle{
      to {
      transform:rotate(360deg);
      }
    }

  </style>
  <a class="bridgerunners-duesseldorf" href="#track-thursday">
  <rect id="hit-box" x="0" y="0" width="1429.42" height="1430.45"/>
  <g id="circle">
    <path class="cls-1" d="M162.3,511.86,152,509.17c17.76-67.93,56.35-121,85.59-153.65,31.68-35.31,58.8-54.33,59.94-55.13l6.08,8.73c-.27.19-27.43,19.27-58.3,53.73C216.94,394.54,179.49,446.11,162.3,511.86Z"/>
    <polygon class="cls-1" points="291.47 352.07 281.57 348.19 299.05 303.65 247.48 318.45 244.55 308.23 316.82 287.48 291.47 352.07"/>
    <g>
      <path class="cls-1" d="M409.35,258.84,371,200.26l-26.14,17.11-6.69-10.22,63.49-41.55,6.69,10.23-26.73,17.49L420,251.89Z"/>
      <path class="cls-1" d="M520.44,139.75a23.87,23.87,0,0,1,1.76,11,27.82,27.82,0,0,1-3.08,10.65,30,30,0,0,1-7,8.89l34.36,20.48-14.73,5.88-32.54-19.45-26.1,10.66,11.45,28-11.74,4.79-31.06-76.12,44.47-18.15a27.14,27.14,0,0,1,13.61-1.93,26.58,26.58,0,0,1,12.39,4.71A23.43,23.43,0,0,1,520.44,139.75Zm-32.88-.66-29.47,12,10.39,25.45,29.47-12a17.43,17.43,0,0,0,7-5,16.9,16.9,0,0,0,3.61-7.18,12.3,12.3,0,0,0-.59-7.5,10.46,10.46,0,0,0-4.61-5.22,16.29,16.29,0,0,0-7.37-2.06A19.36,19.36,0,0,0,487.56,139.09Z"/>
      <path class="cls-1" d="M649.62,168.34l-12.75-17.22L589,160l-5.73,20.65-13.17,2.44,24.51-88.16,14.55-2.69,54.25,73.56Zm-49.73-47.88-7.28,26.44,36.14-6.7-16.59-22.49c-1.49-2-2.92-4-4.3-5.83s-2.79-3.88-4.24-6.08q-.81,4-1.77,7.49T599.89,120.46Z"/>
      <path class="cls-1" d="M748.56,165.51l-55.67-.44.1-12.57,21.5.17.45-57.08-21.49-.17.1-12.56,55.67.44-.1,12.57-21.49-.17-.46,57.07,21.49.18Z"/>
      <path class="cls-1" d="M880.14,104l12.4,2.68L875.19,187l-12.52-2.7-50.53-77q-.93,7.6-1.78,15.17t-2.46,15l-7.22,33.41-12.4-2.68,17.36-80.36,12.28,2.65,50.19,78.61c.28-3.86.76-8.05,1.45-12.54s1.46-9,2.31-13.5,1.71-8.74,2.57-12.72Z"/>
      <path class="cls-1" d="M963.45,223.39l-50.92-22.48,5.07-11.5,19.67,8.68,23.05-52.21-19.66-8.68,5.07-11.5,50.93,22.49-5.08,11.49L971.92,151l-23,52.22,19.66,8.68Z"/>
      <path class="cls-1" d="M1045.07,174.54,1101.46,213l-6.87,10.09-45.92-31.27-12.23,18L1077,237.37l-6.88,10.1-40.57-27.64-13.42,19.71,45.91,31.27-6.88,10.1-56.39-38.42Z"/>
      <path class="cls-1" d="M1176.16,317.69a23.67,23.67,0,0,1-9.53,5.78,27.82,27.82,0,0,1-11,1.16,30,30,0,0,1-10.89-3.16l-6,39.55-11-11.43,5.76-37.47L1113.76,292l-21.68,21.17-8.86-9.08L1142,246.61,1175.6,281a27.1,27.1,0,0,1,6.92,11.88,26.58,26.58,0,0,1,.3,13.25A23.36,23.36,0,0,1,1176.16,317.69ZM1164.4,287l-22.24-22.77-19.66,19.2,22.24,22.77a17.49,17.49,0,0,0,7.25,4.57,16.9,16.9,0,0,0,8,.63,12.28,12.28,0,0,0,6.73-3.36,10.46,10.46,0,0,0,3.1-6.24,16.2,16.2,0,0,0-.87-7.61A19.39,19.39,0,0,0,1164.4,287Z"/>
      <path class="cls-1" d="M1270.69,409.88l-24.1,50.59,54.51,13,5.37,11.23-74.16,35.49-5.47-11.45,31.46-15.05q6.89-3.3,13.21-6t12.78-5l-49.59-12.21-3.35-7L1253,417.19q-5.84,3.58-11.91,6.81t-13,6.53l-31.46,15.05-5.48-11.44,74.16-35.48Z"/>
      <path class="cls-1" d="M1256.9,612.39l-13.19-54.08,12.21-3,5.09,20.88,55.45-13.52-5.09-20.88,12.21-3,13.19,54.08-12.21,3L1319.47,575,1264,588.54l5.1,20.88Z"/>
      <path class="cls-1" d="M1264.41,673.78l69.86-4.45-2-31.18,12.19-.78,4.83,75.72-12.19.78-2-31.88-69.85,4.45Z"/>
      <path class="cls-1" d="M1244.31,871l20.88-4.81,11-47.48-16.65-13.5,3-13,71,57.66-3.34,14.42-89.09,20.37Zm63.75-26.47-21.33-17.23-8.29,35.81,27.24-6.23,7.07-1.62c2.25-.53,4.67-1,7.26-1.46-2.21-1.56-4.26-3.09-6.16-4.62Z"/>
      <path class="cls-1" d="M1300.45,958.09l-54.56,12.77,23.9,50.68-5.41,11.21-74-35.77,5.52-11.42,31.41,15.17q6.87,3.33,12.93,6.58t11.89,6.85l-21.43-46.35,3.37-7,49.63-12q-6.43-2.32-12.75-5.06t-13.19-6l-31.4-15.18,5.51-11.42,74,35.77Z"/>
      <path class="cls-1" d="M1119.83,1088.23l50.86,48.09,21.47-22.69L1201,1122l-52.13,55.12-8.87-8.39,22-23.21-50.86-48.1Z"/>
      <path class="cls-1" d="M1039.35,1229.81a23.76,23.76,0,0,1-4.27-10.31,27.92,27.92,0,0,1,.53-11.06,30.15,30.15,0,0,1,4.78-10.28l-38.16-12,13-9.13,36.16,11.4,22.93-16.4-17.63-24.65L1067,1140l47.82,66.87-39.07,27.94a27.1,27.1,0,0,1-12.79,5,26.52,26.52,0,0,1-13.14-1.72A23.38,23.38,0,0,1,1039.35,1229.81Zm32.13-7,25.89-18.51-16-22.35-25.88,18.51a17.54,17.54,0,0,0-5.63,6.47,16.85,16.85,0,0,0-1.84,7.82,12.27,12.27,0,0,0,2.3,7.16,10.48,10.48,0,0,0,5.69,4,16.33,16.33,0,0,0,7.65.3A19.26,19.26,0,0,0,1071.48,1222.85Z"/>
      <path class="cls-1" d="M907,1231.54l16.34,13.86,44.64-19.58.86-21.41,12.27-5.38-3.76,91.43-13.55,5.94-69.6-59.25Zm59.34,35.27,1.06-27.39-33.67,14.76L955,1272.29q2.87,2.46,5.52,4.7t5.51,5q-.12-4.07,0-7.71T966.3,1266.81Z"/>
      <path class="cls-1" d="M795,1273a64.92,64.92,0,0,1,18.92-15.64,53.83,53.83,0,0,1,14.68-5.45,56.21,56.21,0,0,1,18.82-1.07,46.21,46.21,0,0,1,16.57,5.07,39,39,0,0,1,12.73,10.85A40.81,40.81,0,0,1,884,1283a37.38,37.38,0,0,1-.09,17.1,41.18,41.18,0,0,1-7.3,15.19,49.19,49.19,0,0,1-13,11.81,52.64,52.64,0,0,1-17,6.93,57.89,57.89,0,0,1-15.34,1.33,63.56,63.56,0,0,1-14-2.22,42.4,42.4,0,0,1-10.65-4.39l5-12a61,61,0,0,0,15.61,5.35,43.12,43.12,0,0,0,17.82-.43A37.84,37.84,0,0,0,856.6,1317a35.44,35.44,0,0,0,9.23-8,28.69,28.69,0,0,0,5.42-10.63,26,26,0,0,0,.13-12.53,27.48,27.48,0,0,0-5.65-12,28.31,28.31,0,0,0-9.76-7.47,34.74,34.74,0,0,0-12.35-3.12,46.74,46.74,0,0,0-13.31,1,39.9,39.9,0,0,0-11.88,4.48,45.31,45.31,0,0,0-8.67,6.53q-3.66,3.57-6.55,6.86Z"/>
      <path class="cls-1" d="M747.07,1264.64l12.69-.05.33,82.21-12.69,0-.18-44.51-22.48,17.71-34.3,27-18.79.08,42.15-33.06L673,1264.94l16.92-.07,33.87,41.44,23.42-18.41Z"/>
      <path class="cls-1" d="M563.43,1243.06l-20.33,67,29.9,9.08-3.55,11.68-72.6-22,3.55-11.69,30.57,9.28,20.33-67Z"/>
      <path class="cls-1" d="M443.47,1285.65l16.78-31.37-50.64-27.09-16.78,31.37-11.19-6,38.78-72.49,11.19,6-16.23,30.35L466,1243.51l16.23-30.35,11.18,6-38.78,72.5Z"/>
      <path class="cls-1" d="M273.34,1167.85l28-32.65a41.27,41.27,0,0,1,17.32-12.38,36.79,36.79,0,0,1,20.18-1.44q10.41,2.11,19.95,10.29t13.19,18.09a36.67,36.67,0,0,1,1.73,20.19,41.28,41.28,0,0,1-9.57,19l-28,32.65-9.64-8.25,27.65-32.3a27.23,27.23,0,0,0,5.22-27.85,29.3,29.3,0,0,0-8.65-12.2,31,31,0,0,0-13.83-7,26.8,26.8,0,0,0-14.39.83,28.07,28.07,0,0,0-12.33,8.61l-27.65,32.3Z"/>
      <path class="cls-1" d="M211,1052.93a23.64,23.64,0,0,1,10.17-4.56,27.59,27.59,0,0,1,11.08.21,29.68,29.68,0,0,1,10.41,4.48l10.86-38.5,9.5,12.69-10.33,36.48,17.06,22.44,24.12-18.34,7.68,10.1-65.45,49.75L207,1089.44a27,27,0,0,1-5.4-12.64,26.55,26.55,0,0,1,1.33-13.19A23.43,23.43,0,0,1,211,1052.93Zm7.88,31.92,19.26,25.34L260,1093.56l-19.26-25.34a17.55,17.55,0,0,0-6.63-5.43,16.9,16.9,0,0,0-7.87-1.62,12.3,12.3,0,0,0-7.09,2.51,10.44,10.44,0,0,0-3.85,5.81,16.34,16.34,0,0,0-.08,7.66A19.5,19.5,0,0,0,218.85,1084.85Z"/>
      <path class="cls-1" d="M212.06,993.54a56.24,56.24,0,0,0,3.67-18.12,40.15,40.15,0,0,0-4.42-18.4,46.19,46.19,0,0,0-6.41-9.95,23.87,23.87,0,0,0-8-6.43,9.42,9.42,0,0,0-8.41,0,6.74,6.74,0,0,0-4,5.53,26.74,26.74,0,0,0,1.16,9.74q1.62,5.94,4.43,14.22a88.14,88.14,0,0,1,4.13,18.35,28.48,28.48,0,0,1-1.69,14.1,17.68,17.68,0,0,1-9.07,9.06,19,19,0,0,1-14,1.3,30.88,30.88,0,0,1-13.16-8.27,56.2,56.2,0,0,1-10.61-15.42q-5.44-11.32-6-21.16A33.82,33.82,0,0,1,143,950.5l12,3.6a34.23,34.23,0,0,0-3,14.29,37.15,37.15,0,0,0,4,16.24,44.36,44.36,0,0,0,6.16,9.68,19.54,19.54,0,0,0,7,5.5,8,8,0,0,0,6.89,0,8.4,8.4,0,0,0,4.84-5.79,22.43,22.43,0,0,0-.27-9.64,114.71,114.71,0,0,0-3.61-12.93q-2.31-6.71-4.05-13.16a54.12,54.12,0,0,1-1.94-12.17A20.36,20.36,0,0,1,173.11,936a16.36,16.36,0,0,1,7.86-7.1,21.82,21.82,0,0,1,14.65-1.76,30.29,30.29,0,0,1,14.19,8.09,57.65,57.65,0,0,1,11.82,17,66.22,66.22,0,0,1,6.59,22.37,46.49,46.49,0,0,1-3.17,21.59Z"/>
      <path class="cls-1" d="M102.88,866.85a57.11,57.11,0,0,1-1.72-20.21,40.67,40.67,0,0,1,5.16-16.18A37.44,37.44,0,0,1,117,818.78a42.88,42.88,0,0,1,14.61-6.68,41.5,41.5,0,0,1,21.26.08,38.12,38.12,0,0,1,18.22,11.36q7.89,8.57,11.59,23.38l10.08,40.33L113,907.18Zm68.05-16.4q-2.84-11.4-8.37-17.52A24.93,24.93,0,0,0,149.81,825a30.71,30.71,0,0,0-15,.17A30.21,30.21,0,0,0,121.79,832a25.65,25.65,0,0,0-7.65,13q-2.11,8,.73,19.43l6.87,27.46,56.06-14Z"/>
      <path class="cls-1" d="M165.58,701.83l-18.89,10.11,1.82,48.71,19.6,8.67.5,13.38L85,745.63l-.55-14.78,80.66-43ZM111,744.07l25.09,11-1.38-36.73-24.65,13.14-6.4,3.41c-2,1.1-4.25,2.2-6.63,3.31,2.54.92,4.93,1.87,7.15,2.84Z"/>
      <path class="cls-1" d="M98.11,575.46,142.33,622l31.25,4.67-1.88,12.54-30.31-4.53L84.21,668.38,86.81,651l43.8-24.45L95.78,591Z"/>
    </g>
  </g>
  <g id="logo">
    <path class="cls-1" d="M391,554.27a41.45,41.45,0,0,1,17.16,3.88q8.58,3.87,18.05,13.39T435.71,601V616.2q0,22.63-17.75,32.16,17.75,10.36,17.75,32.84v23.08q0,20.72-13.31,34.32t-34.32,13.61h-43.5V554.27ZM407.6,613.2V600.94q0-9.27-5.23-14.65t-14-5.39H372.69v55h16.58q9.6,0,14-6.13T407.6,613.2Zm0,91.08V681.2q0-9.47-5.09-14.94t-14.11-5.47H372.69v63.32h16a17.86,17.86,0,0,0,13.68-5.63A20,20,0,0,0,407.6,704.28Z"/>
    <path class="cls-1" d="M487.19,752.21V554.27h49.42q19.51,0,32.84,13.65t13.31,33.23v18.4q0,27.29-23,41.83l29.84,90.83H559.8L533.06,667.3H515.3v84.91Zm62.73-116a18.77,18.77,0,0,0,3.7-7.43,38.27,38.27,0,0,0,1-9.22V601.12q0-9.21-5-14.87t-14.2-5.65H515.3v61.84h19.83A19.55,19.55,0,0,0,549.92,636.2Z"/>
    <path class="cls-1" d="M633.06,752.21V554.27h28.11V752.21Z"/>
    <path class="cls-1" d="M760.28,554.27A45.07,45.07,0,0,1,793,567.78a43.89,43.89,0,0,1,13.76,32.49v103q0,21.36-13.17,35.16t-34.18,13.8H715.61V554.27Zm18.35,149V600.21a18,18,0,0,0-6-13.81,20.51,20.51,0,0,0-14.4-5.5H743.71v145h13.68Q778.62,725.88,778.63,703.3Z"/>
    <path class="cls-1" d="M944.91,731.27a46,46,0,0,1-17.16,16.52,47.39,47.39,0,0,1-23.38,5.9,46.6,46.6,0,0,1-21.59-5.32,45.17,45.17,0,0,1-16.13-13.17A44.31,44.31,0,0,1,859,719.52a75,75,0,0,1-1.93-17.9V602.8a61.93,61.93,0,0,1,1.63-14.65q1.62-6.66,10.8-21t35.8-14.35a46.36,46.36,0,0,1,22.19,5.54q10.37,5.53,15.68,13.55a46.75,46.75,0,0,1,7,15A67.15,67.15,0,0,1,951.72,602v8.16H923.61v-8a51.13,51.13,0,0,0-.44-7.61q-.43-2.73-4.37-8.18T905,580.9q-11.37,0-15,6.08t-4.22,9a35.5,35.5,0,0,0-.59,6.82v99a59.84,59.84,0,0,0,.44,8.44q.43,2.82,4.37,9.05t14.72,6.22q11.64,0,14.71-6.21A42.12,42.12,0,0,0,923,710.2a45.07,45.07,0,0,0,.59-8.29V667.3H901.12V642.74h50.6v59q0,12.39-1.48,17.85A44.8,44.8,0,0,1,944.91,731.27Z"/>
    <path class="cls-1" d="M1087.82,724.11v28.1h-84.33V554.27h84.33v26H1031.6v58.58H1081v26.63H1031.6v58.59Z"/>
    <path class="cls-1" d="M412.86,953.42V831h30.57a27.28,27.28,0,0,1,20.31,8.44A28.35,28.35,0,0,1,472,860v11.38q0,16.88-14.25,25.87l18.46,56.19H457.77l-16.54-52.53h-11v52.53Zm38.8-71.76a11.65,11.65,0,0,0,2.29-4.6,23.39,23.39,0,0,0,.64-5.7V860a13.35,13.35,0,0,0-3.11-9.2q-3.12-3.48-8.78-3.49H430.25v38.25h12.26A12.1,12.1,0,0,0,451.66,881.66Z"/>
    <path class="cls-1" d="M555.8,940.41a30.06,30.06,0,0,1-10.25,10.08,26.58,26.58,0,0,1-13.91,3.85,28.72,28.72,0,0,1-14.55-4q-6.87-3.93-9.61-9a34.6,34.6,0,0,1-3.57-8.79,38.12,38.12,0,0,1-.82-8.16V831h17.39v93.5a20,20,0,0,0,.36,4.13,15,15,0,0,0,2.84,5c1.64,2.2,4.36,3.3,8.14,3.3q5.31,0,8-3.85a14.85,14.85,0,0,0,2.66-8.62V831h17.38v93.48a36.82,36.82,0,0,1-.91,8.34A26.51,26.51,0,0,1,555.8,940.41Z"/>
    <path class="cls-1" d="M638,953.42,610.7,878.88v74.54H593.32V831h16.47l27.08,74.24V831h17.39V953.42Z"/>
    <path class="cls-1" d="M732.59,953.42l-27.27-74.54v74.54H687.93V831H704.4l27.09,74.24V831h17.39V953.42Z"/>
    <path class="cls-1" d="M834.71,936v17.39H782.55V831h52.16v16.11H799.94v36.23H830.5V899.8H799.94V936Z"/>
    <path class="cls-1" d="M872.59,953.42V831h30.57a27.28,27.28,0,0,1,20.31,8.44A28.35,28.35,0,0,1,931.71,860v11.38q0,16.88-14.25,25.87l18.46,56.19H917.5L901,900.89H890v52.53Zm38.8-71.76a11.65,11.65,0,0,0,2.29-4.6,23.39,23.39,0,0,0,.64-5.7V860a13.35,13.35,0,0,0-3.11-9.2q-3.12-3.48-8.78-3.49H890v38.25h12.26A12.1,12.1,0,0,0,911.39,881.66Z"/>
    <path class="cls-1" d="M975.45,922.86a37,37,0,0,0,.27,5.21c.18,1.16,1.11,2.93,2.77,5.31s4.7,3.57,9.12,3.57a15.13,15.13,0,0,0,6.83-1.56,10.8,10.8,0,0,0,4.61-4,10.64,10.64,0,0,0,1.56-5.13q.09-2.65.09-3.57v-8.6a40.92,40.92,0,0,0-.27-5.49,7.82,7.82,0,0,0-2.2-3.93,18,18,0,0,0-5.49-3.85q-3.57-1.74-12.44-5a35.66,35.66,0,0,1-14.92-10.34q-6-7-6-19.31v-5.49a30.7,30.7,0,0,1,8.33-21.5,27,27,0,0,1,20.77-9.06,28.12,28.12,0,0,1,21.14,8.87,30.19,30.19,0,0,1,8.51,21.69v5.49H1000.7v-5.49a23.07,23.07,0,0,0-.36-4.39,15.87,15.87,0,0,0-2.93-5.31q-2.56-3.48-8.6-3.48a11.23,11.23,0,0,0-8.7,3.75,13.55,13.55,0,0,0-3.38,9.43v5.49a32.8,32.8,0,0,0,.27,5,8.41,8.41,0,0,0,1.92,3.57,13.4,13.4,0,0,0,4.76,3.48q3.12,1.47,12,4.67a39.67,39.67,0,0,1,15.65,10.43q6.76,7.23,6.77,19.67v9.89a42.55,42.55,0,0,1-1.19,10.61q-1.18,4.57-7.41,12.72t-21.41,8.15q-15.75,0-22.88-10.35t-7.14-21.13v-4.4h17.39Z"/>
    <rect class="cls-1" x="362.81" y="475.67" width="681.7" height="6.16"/>
    <rect class="cls-1" x="711.65" y="371.8" width="6.16" height="106.95"/>
    <rect class="cls-1" x="820.21" y="314.48" width="6.16" height="235.83" transform="translate(102.09 1019.46) rotate(-66.85)"/>
    <rect class="cls-1" x="793.33" y="355.11" width="6.16" height="177.38" transform="translate(75.2 1001.55) rotate(-66.85)"/>
    <rect class="cls-1" x="766.56" y="395.81" width="6.16" height="118.95" transform="translate(48.41 983.93) rotate(-66.85)"/>
    <rect class="cls-1" x="739.62" y="436.6" width="6.16" height="60.54" transform="translate(21.57 966.4) rotate(-66.86)"/>
    <rect class="cls-1" x="488.35" y="429.32" width="235.84" height="6.16" transform="translate(-121.14 272.99) rotate(-23.14)"/>
    <rect class="cls-1" x="544.39" y="440.82" width="177.38" height="6.16" transform="translate(-123.5 284.45) rotate(-23.14)"/>
    <rect class="cls-1" x="600.54" y="452.22" width="118.94" height="6.16" transform="translate(-125.81 295.95) rotate(-23.14)"/>
    <rect class="cls-1" x="656.6" y="463.68" width="60.54" height="6.16" transform="translate(-128.16 307.42) rotate(-23.14)"/>
  </g>
</a>
</svg>
