<svg id="Layer_1" data-name="Layer 1" xmlns="http://www.w3.org/2000/svg" xmlns:xlink="http://www.w3.org/1999/xlink" viewBox="0 0 800 328">
  <defs>
    <style>
      .cls-1 {
        fill: url(#linear-gradient);
      }

      .cls-2, .cls-3 {
        fill: none;
        stroke-miterlimit: 10;
        stroke-width: 2px;
      }

      .cls-2 {
        stroke: #e6e6e6;
      }

      .cls-3 {
        stroke: red;
        opacity: 0;
      }

      .cls-4 {
        fill: #e6e6e6;
      }

      .cls-5 {
        fill: #ff3d00;
      }

      .cls-6 {
        fill: #999;
      }

      .cls-7 {
        fill: #1a1a1a;
      }

      .cls-8 {
        fill: #ccc;
      }
    </style>
    <linearGradient id="linear-gradient" x1="509.67" y1="271.01" x2="343.8" y2="105.15" gradientTransform="translate(800 322.69) rotate(-180)" gradientUnits="userSpaceOnUse">
      <stop offset="0" stop-color="#fff"/>
      <stop offset="1" stop-color="#f2f2f2"/>
    </linearGradient>
  </defs>
  <title>track-workout</title>
  <rect class="cls-1" x="-9" y="-9" width="818" height="340.69" transform="translate(800 322.69) rotate(180)"/>
  <path class="cls-2" d="M637.59,117.47a52,52,0,1,0,0,104.07H893.78V117.47Z"/>
  <path class="cls-2" d="M635.22,92.75a76.86,76.86,0,1,0,0,153.71H892.84V92.75Z"/>
  <path class="cls-2" d="M635.67,66.05a103.56,103.56,0,1,0,0,207.11H892.84V66.05Z"/>
  <path class="cls-2" d="M634.58,39a130.61,130.61,0,0,0,0,261.21H892.84V39Z"/>
  <path id="path-inner" class="cls-3" d="M637.13,105.12a64.37,64.37,0,1,0,0,128.73H954V105.12Z"/>
  <path id="path-center" class="cls-3" d="M635.47,79.61a90,90,0,1,0,0,180H937.14v-180Z"/>
  <path id="path-outher" class="cls-3" d="M637,52.15a117.46,117.46,0,1,0,0,234.91H928.71V52.15Z"/>
  <polygon class="cls-4" points="772.82 111.22 760.95 105.28 772.82 99.34 772.82 111.22"/>
  <polygon class="cls-4" points="772.82 84.97 760.95 79.03 772.82 73.09 772.82 84.97"/>
  <polygon class="cls-4" points="772.82 58.72 760.95 52.78 772.82 46.83 772.82 58.72"/>

  <circle id="circle-inner" class="cls-5" r="5.63">
    <animateMotion dur="6.0s" repeatCount="indefinite"
      path="M637.13,105.12a64.37,64.37,0,1,0,0,128.73H954V105.12Z" />
  </circle>

  <circle id="circle-center" class="cls-6" r="5.63">
    <animateMotion dur="5.8s" repeatCount="indefinite"
      path="M635.47,79.61a90,90,0,1,0,0,180H937.14v-180Z" />
  </circle>

  <circle id="circle-outer" class="cls-7"  r="5.63">
    <animateMotion dur="6.2s" repeatCount="indefinite"
      path="M637,52.15a117.46,117.46,0,1,0,0,234.91H928.71V52.15Z" />
  </circle>


  <g id="circle">
    <g>
      <path class="cls-8" d="M514.32,248.34l2.83,4.33-1,.64-1.09-1.67-4.45,2.9,1.1,1.67-1,.64-2.83-4.33,1-.64,1.09,1.67,4.44-2.9L513.34,249Z"/>
      <path class="cls-8" d="M505,247.66l2-4.82-5.13-.91-.56-1,6.7-3.69.56,1-2.83,1.57c-.42.23-.81.44-1.2.63s-.76.37-1.16.53l4.67.87.35.63-1.75,4.41c.35-.24.7-.47,1.07-.7s.75-.44,1.16-.67l2.84-1.57.57,1-6.69,3.7Z"/>
      <path class="cls-8" d="M497.45,232.88a2.51,2.51,0,0,1-.23-1.25,2.4,2.4,0,0,1,.39-1.17,2.28,2.28,0,0,1,.95-.81,2.22,2.22,0,0,1,1.29-.18,2.72,2.72,0,0,1,1.22.53,2.69,2.69,0,0,1,.86,1.08l1.28,2.79,2.56-1.16.49,1.07-7,3.17Zm3.5-1.23a1.73,1.73,0,0,0-.49-.63,1.67,1.67,0,0,0-.68-.31,1.19,1.19,0,0,0-.7.09,1,1,0,0,0-.47.45,1.41,1.41,0,0,0-.16.69,1.66,1.66,0,0,0,.17.77l1.23,2.69,2.32-1.05Z"/>
      <path class="cls-8" d="M494.73,219.7a2.28,2.28,0,0,1,1-.13,2.69,2.69,0,0,1,1,.32,2.87,2.87,0,0,1,.8.68l2-3.14.5,1.39-1.9,3,.91,2.45,2.64-1,.41,1.11L495,227l-1.56-4.19a2.52,2.52,0,0,1-.14-1.27,2.42,2.42,0,0,1,.47-1.13A2.22,2.22,0,0,1,494.73,219.7Zm-.16,3.06,1,2.77,2.39-.89-1-2.77a1.54,1.54,0,0,0-.44-.67,1.63,1.63,0,0,0-.66-.35,1.19,1.19,0,0,0-.7,0,1,1,0,0,0-.49.41,1.41,1.41,0,0,0-.22.68A1.84,1.84,0,0,0,494.57,222.76Z"/>
      <path class="cls-8" d="M492.41,207a3.69,3.69,0,0,1,1.58-.1,3.87,3.87,0,0,1,1.47.58,4.48,4.48,0,0,1,1.2,1.18,5.24,5.24,0,0,1,.8,1.7,5.36,5.36,0,0,1,.23,1.87,4.55,4.55,0,0,1-.4,1.64,3.79,3.79,0,0,1-.94,1.26,3.47,3.47,0,0,1-1.39.75,3.55,3.55,0,0,1-1.58.11,3.76,3.76,0,0,1-1.46-.58,4.47,4.47,0,0,1-1.21-1.17,5.39,5.39,0,0,1-.8-1.71,5.64,5.64,0,0,1-.23-1.87,4.65,4.65,0,0,1,.4-1.64,3.7,3.7,0,0,1,2.33-2Zm.33,1.16a2.53,2.53,0,0,0-1.25.81,3,3,0,0,0-.62,1.44,4,4,0,0,0,.14,1.8,4.29,4.29,0,0,0,.84,1.62,3,3,0,0,0,1.29.88,2.44,2.44,0,0,0,1.49,0,2.48,2.48,0,0,0,1.25-.81,3,3,0,0,0,.62-1.43,3.94,3.94,0,0,0-.14-1.81,4,4,0,0,0-.84-1.61,2.9,2.9,0,0,0-1.29-.88A2.37,2.37,0,0,0,492.74,208.12Z"/>
      <path class="cls-8" d="M486.43,197.36l8.18,1.8.3,1.39-6.76,5-.27-1.3,4-2.94c.26-.18.55-.39.86-.63s.61-.45.89-.65l-1.06-.21c-.37-.09-.72-.15-1-.21l-4.87-.91Z"/>
      <path class="cls-8" d="M485.88,194l-.87-6.29,1.12-.15.71,5.11,2-.28-.64-4.52,1.13-.15.63,4.52,2.2-.31-.72-5.11,1.13-.16.87,6.28Z"/>
      <path class="cls-8" d="M483.9,170.52l4.83,3.5,2.94-.1,0,1.18-2.85.1-4.65,4.05-.06-1.63,3.59-3L484,172Z"/>
      <path class="cls-8" d="M488,159.13a3.61,3.61,0,0,1,1.53.39,3.75,3.75,0,0,1,1.21,1,4.67,4.67,0,0,1,.79,1.5,5.31,5.31,0,0,1,.23,1.86,5.39,5.39,0,0,1-.36,1.85,4.55,4.55,0,0,1-.89,1.44,4,4,0,0,1-1.28.91,3.73,3.73,0,0,1-3.09-.11,3.78,3.78,0,0,1-1.22-1,4.5,4.5,0,0,1-.78-1.49,5.83,5.83,0,0,1,.13-3.72,4.61,4.61,0,0,1,.89-1.43,3.73,3.73,0,0,1,1.28-.92A3.53,3.53,0,0,1,488,159.13Zm-.05,1.2a2.47,2.47,0,0,0-1.44.38,3,3,0,0,0-1,1.17,4.13,4.13,0,0,0-.43,1.77,4.24,4.24,0,0,0,.3,1.79,3.07,3.07,0,0,0,.95,1.24,2.49,2.49,0,0,0,1.41.48,2.45,2.45,0,0,0,1.44-.38,2.9,2.9,0,0,0,1-1.17,4.2,4.2,0,0,0,.43-1.77,4,4,0,0,0-.31-1.78,2.94,2.94,0,0,0-1-1.25A2.49,2.49,0,0,0,488,160.33Z"/>
      <path class="cls-8" d="M485.37,147.64l4,.45a3.8,3.8,0,0,1,1.86.69,3.36,3.36,0,0,1,1.16,1.47,4,4,0,0,1,.25,2.08,4.11,4.11,0,0,1-.7,2,3.38,3.38,0,0,1-1.47,1.18,3.85,3.85,0,0,1-2,.26l-4-.45.13-1.17,3.93.44a2.57,2.57,0,0,0,1.39-.2,2.47,2.47,0,0,0,1-.85,2.68,2.68,0,0,0,.49-1.3,2.82,2.82,0,0,0-.18-1.43,2.55,2.55,0,0,0-.81-1.07,2.71,2.71,0,0,0-1.31-.5l-3.93-.44Z"/>
      <path class="cls-8" d="M489.62,137a2.27,2.27,0,0,1,.95.42,2.56,2.56,0,0,1,.68.78,2.88,2.88,0,0,1,.33,1l3.34-1.65-.29,1.44-3.16,1.56-.48,2.58,2.77.52-.22,1.16L486,143.42l.83-4.39a2.52,2.52,0,0,1,.53-1.16,2.46,2.46,0,0,1,1-.73A2.26,2.26,0,0,1,489.62,137Zm-1.71,2.54-.55,2.9,2.51.48.55-2.91a1.66,1.66,0,0,0,0-.8,1.54,1.54,0,0,0-.38-.64,1.09,1.09,0,0,0-.61-.33,1,1,0,0,0-.64.09,1.6,1.6,0,0,0-.54.47A1.81,1.81,0,0,0,487.91,139.57Z"/>
      <path class="cls-8" d="M494.82,128.24a5.27,5.27,0,0,0,1.39-1,3.75,3.75,0,0,0,.85-1.54,4.07,4.07,0,0,0,.18-1.08,2,2,0,0,0-.15-.95.88.88,0,0,0-.57-.53.65.65,0,0,0-.63.13,2.62,2.62,0,0,0-.53.74c-.17.34-.37.76-.59,1.25a7.62,7.62,0,0,1-.87,1.52,2.57,2.57,0,0,1-1,.86,1.62,1.62,0,0,1-1.19.06,1.81,1.81,0,0,1-1-.79,2.9,2.9,0,0,1-.38-1.39,5.88,5.88,0,0,1,1.15-3.56,3.23,3.23,0,0,1,1.34-1l.6,1a3.11,3.11,0,0,0-1.1.79,3.41,3.41,0,0,0-.75,1.37,4.13,4.13,0,0,0-.18,1,1.82,1.82,0,0,0,.13.81.71.71,0,0,0,.48.43.76.76,0,0,0,.69-.09,2,2,0,0,0,.59-.68,9.5,9.5,0,0,0,.56-1.11c.18-.4.36-.79.55-1.16a4.61,4.61,0,0,1,.63-1,1.92,1.92,0,0,1,.78-.57,1.5,1.5,0,0,1,1,0,2,2,0,0,1,1.12.8,2.73,2.73,0,0,1,.46,1.44,5.35,5.35,0,0,1-.25,1.91,6.33,6.33,0,0,1-.95,2,4.24,4.24,0,0,1-1.58,1.28Z"/>
      <path class="cls-8" d="M494.49,112.57a2.62,2.62,0,0,1,.73-1,2.4,2.4,0,0,1,1.11-.54,2.21,2.21,0,0,1,1.24.1,2.34,2.34,0,0,1,1,.79,2.86,2.86,0,0,1,.49,1.24,2.81,2.81,0,0,1-.17,1.37l-1.08,2.87,2.63,1-.42,1.1-7.15-2.7Zm3.34,1.61a1.66,1.66,0,0,0,.1-.79,1.56,1.56,0,0,0-.26-.7,1.11,1.11,0,0,0-.55-.43,1,1,0,0,0-.65,0,1.53,1.53,0,0,0-.6.37,1.72,1.72,0,0,0-.43.67l-1.05,2.77,2.39.9Z"/>
      <path class="cls-8" d="M496.88,106.71l2.64-5.77,1,.48-2.15,4.69,1.84.84,1.9-4.15,1,.48-1.9,4.15,2,.92,2.15-4.69,1,.47-2.64,5.77Z"/>
      <path class="cls-8" d="M501.38,97.25l3-5.58,1,.54-2.47,4.54,1.78,1,2.17-4,1,.54-2.17,4,1.94,1,2.47-4.54,1,.55-3,5.57Z"/>
      <path class="cls-8" d="M508.59,84.82a5.24,5.24,0,0,1,1.26-1.4,3.6,3.6,0,0,1,1.42-.69,3.47,3.47,0,0,1,1.47,0,3.83,3.83,0,0,1,1.38.56,3.73,3.73,0,0,1,1.35,1.44,3.49,3.49,0,0,1,.4,2,4.89,4.89,0,0,1-.84,2.27L513,92.2l-6.44-4.12ZM514,88.38a3.83,3.83,0,0,0,.65-1.69,2.29,2.29,0,0,0-.28-1.36,2.89,2.89,0,0,0-1-1,2.84,2.84,0,0,0-1.3-.44,2.36,2.36,0,0,0-1.37.31,3.71,3.71,0,0,0-1.26,1.29L508.1,87.7l4.52,2.89Z"/>
    </g>
  </g>
</svg>
